HIERARCHY
ROOT Hips
{
  OFFSET 346.003 88.7533 237.413
  CHANNELS 6 Xposition Yposition Zposition Zrotation Xrotation Yrotation
  JOINT RightUpLeg
  {
    OFFSET -9.26802 -1.58264 0.0217161
    CHANNELS 6 Xposition Yposition Zposition Zrotation Xrotation Yrotation
    JOINT RightLeg
    {
      OFFSET -0.0377026 -41.8721 0.0179395
      CHANNELS 6 Xposition Yposition Zposition Zrotation Xrotation Yrotation
      JOINT RightFoot
      {
        OFFSET -1.24572 -40.7807 1.11978
        CHANNELS 6 Xposition Yposition Zposition Zrotation Xrotation Yrotation
        End Site
        {
          OFFSET 0 -7.69 17.5
        }
      }
    }
  }
  JOINT LeftUpLeg
  {
    OFFSET 9.30666 -1.6399 0.02861
    CHANNELS 6 Xposition Yposition Zposition Zrotation Xrotation Yrotation
    JOINT LeftLeg
    {
      OFFSET 0.0386914 -41.8876 0.0404075
      CHANNELS 6 Xposition Yposition Zposition Zrotation Xrotation Yrotation
      JOINT LeftFoot
      {
        OFFSET 0.504156 -42.8741 -1.65533
        CHANNELS 6 Xposition Yposition Zposition Zrotation Xrotation Yrotation
        End Site
        {
          OFFSET 0 -7.69 17.5
        }
      }
    }
  }
  JOINT Spine
  {
    OFFSET 0.0156638 14.3048 0.0620744
    CHANNELS 6 Xposition Yposition Zposition Zrotation Xrotation Yrotation
    JOINT Spine1
    {
      OFFSET -0.00462339 9.70807 0.0326817
      CHANNELS 6 Xposition Yposition Zposition Zrotation Xrotation Yrotation
      JOINT Spine2
      {
        OFFSET 0.0390626 10.1159 -0.0215179
        CHANNELS 6 Xposition Yposition Zposition Zrotation Xrotation Yrotation
        JOINT Spine3
        {
          OFFSET 0.00893664 9.725 -0.00434787
          CHANNELS 6 Xposition Yposition Zposition Zrotation Xrotation Yrotation
          JOINT Neck
          {
            OFFSET 0.0802962 10.3794 -0.068109
            CHANNELS 6 Xposition Yposition Zposition Zrotation Xrotation Yrotation
            JOINT Head
            {
              OFFSET -0.053158 9.4713 -0.034559
              CHANNELS 6 Xposition Yposition Zposition Zrotation Xrotation Yrotation
              End Site
              {
                OFFSET 0 15.95 0
              }
            }
          }
          JOINT RightShoulder
          {
            OFFSET -3.18248 6.9154 0.00291953
            CHANNELS 6 Xposition Yposition Zposition Zrotation Xrotation Yrotation
            JOINT RightArm
            {
              OFFSET -12.8044 0.0292422 0.0185245
              CHANNELS 6 Xposition Yposition Zposition Zrotation Xrotation Yrotation
              JOINT RightForeArm
              {
                OFFSET -26.4455 -0.0350596 -0.0899503
                CHANNELS 6 Xposition Yposition Zposition Zrotation Xrotation Yrotation
                JOINT RightHand
                {
                  OFFSET -25.9086 -0.0302623 0.0454701
                  CHANNELS 6 Xposition Yposition Zposition Zrotation Xrotation Yrotation
                  JOINT RightHandThumb1
                  {
                    OFFSET -2.48905 0.190105 3.12053
                    CHANNELS 6 Xposition Yposition Zposition Zrotation Xrotation Yrotation
                    JOINT RightHandThumb2
                    {
                      OFFSET -3.68274 0 0
                      CHANNELS 6 Xposition Yposition Zposition Zrotation Xrotation Yrotation
                      JOINT RightHandThumb3
                      {
                        OFFSET -2.55832 0 0
                        CHANNELS 6 Xposition Yposition Zposition Zrotation Xrotation Yrotation
                        End Site
                        {
                          OFFSET -2.194 0 0
                        }
                      }
                    }
                  }
                  JOINT RightInHandIndex
                  {
                    OFFSET -3.22368 0.508421 1.97842
                    CHANNELS 6 Xposition Yposition Zposition Zrotation Xrotation Yrotation
                    JOINT RightHandIndex1
                    {
                      OFFSET -5.21684 -0.091368 0.999158
                      CHANNELS 6 Xposition Yposition Zposition Zrotation Xrotation Yrotation
                      JOINT RightHandIndex2
                      {
                        OFFSET -3.61937 0 0
                        CHANNELS 6 Xposition Yposition Zposition Zrotation Xrotation Yrotation
                        JOINT RightHandIndex3
                        {
                          OFFSET -2.0521 0 0
                          CHANNELS 6 Xposition Yposition Zposition Zrotation Xrotation Yrotation
                          End Site
                          {
                            OFFSET -1.805 0 0
                          }
                        }
                      }
                    }
                  }
                  JOINT RightInHandMiddle
                  {
                    OFFSET -3.38211 0.517263 0.756737
                    CHANNELS 6 Xposition Yposition Zposition Zrotation Xrotation Yrotation
                    JOINT RightHandMiddle1
                    {
                      OFFSET -5.17411 -0.084 0.313895
                      CHANNELS 6 Xposition Yposition Zposition Zrotation Xrotation Yrotation
                      JOINT RightHandMiddle2
                      {
                        OFFSET -3.94947 0 0
                        CHANNELS 6 Xposition Yposition Zposition Zrotation Xrotation Yrotation
                        JOINT RightHandMiddle3
                        {
                          OFFSET -2.47579 0 0
                          CHANNELS 6 Xposition Yposition Zposition Zrotation Xrotation Yrotation
                          End Site
                          {
                            OFFSET -1.975 0 0
                          }
                        }
                      }
                    }
                  }
                  JOINT RightInHandRing
                  {
                    OFFSET -3.36516 0.537895 -0.128947
                    CHANNELS 6 Xposition Yposition Zposition Zrotation Xrotation Yrotation
                    JOINT RightHandRing1
                    {
                      OFFSET -4.63474 -0.022105 -0.478947
                      CHANNELS 6 Xposition Yposition Zposition Zrotation Xrotation Yrotation
                      JOINT RightHandRing2
                      {
                        OFFSET -3.44238 0 0
                        CHANNELS 6 Xposition Yposition Zposition Zrotation Xrotation Yrotation
                        JOINT RightHandRing3
                        {
                          OFFSET -2.3881 0 0
                          CHANNELS 6 Xposition Yposition Zposition Zrotation Xrotation Yrotation
                          End Site
                          {
                            OFFSET -1.857 0 0
                          }
                        }
                      }
                    }
                  }
                  JOINT RightInHandPinky
                  {
                    OFFSET -3.16105 0.469368 -1.20179
                    CHANNELS 6 Xposition Yposition Zposition Zrotation Xrotation Yrotation
                    JOINT RightHandPinky1
                    {
                      OFFSET -4.14105 -0.022105 -1.09053
                      CHANNELS 6 Xposition Yposition Zposition Zrotation Xrotation Yrotation
                      JOINT RightHandPinky2
                      {
                        OFFSET -2.75653 0 0
                        CHANNELS 6 Xposition Yposition Zposition Zrotation Xrotation Yrotation
                        JOINT RightHandPinky3
                        {
                          OFFSET -1.74189 0 0
                          CHANNELS 6 Xposition Yposition Zposition Zrotation Xrotation Yrotation
                          End Site
                          {
                            OFFSET -1.645 0 0
                          }
                        }
                      }
                    }
                  }
                }
              }
            }
          }
          JOINT LeftShoulder
          {
            OFFSET 3.25079 6.89224 -0.050702
            CHANNELS 6 Xposition Yposition Zposition Zrotation Xrotation Yrotation
            JOINT LeftArm
            {
              OFFSET 12.634 -0.295782 -0.206549
              CHANNELS 6 Xposition Yposition Zposition Zrotation Xrotation Yrotation
              JOINT LeftForeArm
              {
                OFFSET 26.4636 -0.12887 -0.266873
                CHANNELS 6 Xposition Yposition Zposition Zrotation Xrotation Yrotation
                JOINT LeftHand
                {
                  OFFSET 25.9886 0.0154703 -0.0504798
                  CHANNELS 6 Xposition Yposition Zposition Zrotation Xrotation Yrotation
                  JOINT LeftHandThumb1
                  {
                    OFFSET 2.48905 0.190105 3.12053
                    CHANNELS 6 Xposition Yposition Zposition Zrotation Xrotation Yrotation
                    JOINT LeftHandThumb2
                    {
                      OFFSET 3.68274 0 0
                      CHANNELS 6 Xposition Yposition Zposition Zrotation Xrotation Yrotation
                      JOINT LeftHandThumb3
                      {
                        OFFSET 2.55832 0 0
                        CHANNELS 6 Xposition Yposition Zposition Zrotation Xrotation Yrotation
                        End Site
                        {
                          OFFSET 2.194 0 0
                        }
                      }
                    }
                  }
                  JOINT LeftInHandIndex
                  {
                    OFFSET 3.22368 0.508421 1.97842
                    CHANNELS 6 Xposition Yposition Zposition Zrotation Xrotation Yrotation
                    JOINT LeftHandIndex1
                    {
                      OFFSET 5.21684 -0.091368 0.999158
                      CHANNELS 6 Xposition Yposition Zposition Zrotation Xrotation Yrotation
                      JOINT LeftHandIndex2
                      {
                        OFFSET 3.61937 0 0
                        CHANNELS 6 Xposition Yposition Zposition Zrotation Xrotation Yrotation
                        JOINT LeftHandIndex3
                        {
                          OFFSET 2.0521 0 0
                          CHANNELS 6 Xposition Yposition Zposition Zrotation Xrotation Yrotation
                          End Site
                          {
                            OFFSET 1.805 0 0
                          }
                        }
                      }
                    }
                  }
                  JOINT LeftInHandMiddle
                  {
                    OFFSET 3.38211 0.517263 0.756737
                    CHANNELS 6 Xposition Yposition Zposition Zrotation Xrotation Yrotation
                    JOINT LeftHandMiddle1
                    {
                      OFFSET 5.17411 -0.084 0.313895
                      CHANNELS 6 Xposition Yposition Zposition Zrotation Xrotation Yrotation
                      JOINT LeftHandMiddle2
                      {
                        OFFSET 3.94947 0 0
                        CHANNELS 6 Xposition Yposition Zposition Zrotation Xrotation Yrotation
                        JOINT LeftHandMiddle3
                        {
                          OFFSET 2.47579 0 0
                          CHANNELS 6 Xposition Yposition Zposition Zrotation Xrotation Yrotation
                          End Site
                          {
                            OFFSET 1.975 0 0
                          }
                        }
                      }
                    }
                  }
                  JOINT LeftInHandRing
                  {
                    OFFSET 3.36516 0.537895 -0.128947
                    CHANNELS 6 Xposition Yposition Zposition Zrotation Xrotation Yrotation
                    JOINT LeftHandRing1
                    {
                      OFFSET 4.63474 -0.022105 -0.478947
                      CHANNELS 6 Xposition Yposition Zposition Zrotation Xrotation Yrotation
                      JOINT LeftHandRing2
                      {
                        OFFSET 3.44238 0 0
                        CHANNELS 6 Xposition Yposition Zposition Zrotation Xrotation Yrotation
                        JOINT LeftHandRing3
                        {
                          OFFSET 2.3881 0 0
                          CHANNELS 6 Xposition Yposition Zposition Zrotation Xrotation Yrotation
                          End Site
                          {
                            OFFSET 1.857 0 0
                          }
                        }
                      }
                    }
                  }
                  JOINT LeftInHandPinky
                  {
                    OFFSET 3.16105 0.469368 -1.20179
                    CHANNELS 6 Xposition Yposition Zposition Zrotation Xrotation Yrotation
                    JOINT LeftHandPinky1
                    {
                      OFFSET 4.14105 -0.022105 -1.09053
                      CHANNELS 6 Xposition Yposition Zposition Zrotation Xrotation Yrotation
                      JOINT LeftHandPinky2
                      {
                        OFFSET 2.75653 0 0
                        CHANNELS 6 Xposition Yposition Zposition Zrotation Xrotation Yrotation
                        JOINT LeftHandPinky3
                        {
                          OFFSET 1.74189 0 0
                          CHANNELS 6 Xposition Yposition Zposition Zrotation Xrotation Yrotation
                          End Site
                          {
                            OFFSET 1.645 0 0
                          }
                        }
                      }
                    }
                  }
                }
              }
            }
          }
        }
      }
    }
  }
}
MOTION
Frames:	3
Frame Time:	0.00833333
341.902 86.4826 218.527 22.8453 5.32543 -137.611 -9.32173 -1.65992 -0.0626271 33.0429 -35.9637 28.2924 -0.0847306 -41.87 -0.0120954 -4.11306 6.53819 6.48266 -0.219025 -44.6783 1.44807 10.2537 18.5114 44.3595 9.2833 -1.53128 0.0561078 37.2337 -9.72851 24.9556 0.0307612 -41.8992 0.02385 -23.0389 43.0827 25.3898 2.53065 -41.9962 -3.01037 1.85423 -26.5933 11.6812 -0.0490078 14.3084 0.0904932 -4.29737 -6.30778 -10.0284 -0.0205174 9.71689 0.0137998 -0.970236 -1.69101 -2.40499 -0.0632735 10.1216 -0.0633347 -1.63795 -2.80563 -3.93075 -0.0436364 9.71856 -0.0274182 -0.362065 0.101441 2.74234 -0.116724 10.3807 0.12934 -0.867488 -0.145224 34.4555 -0.171835 9.46399 0.00346986 -7.04753 9.53502 30.1109 -3.23909 6.89563 0.0307969 5.29333 8.1404 -8.78859 -12.8152 0.006978 0.0630374 37.8779 -65.1028 -0.276245 -26.4435 -0.0192118 -0.00549153 21.224 -2.95432 127.853 -26.0043 0.0054721 0.0586775 9.04532 -28.5358 3.86731 -2.48905 0.190105 3.12053 28.184 10.7294 19.1592 -3.68274 -5.68434e-14 0 -1.21111e-15 0 -10 -2.55832 0 0 -6.21265e-15 -3.18055e-15 -10 -3.22368 0.508421 1.97842 5.28022e-16 4.77083e-15 -9.93923e-17 -5.21684 -0.091368 0.999158 19.9818 0.871897 2.3964 -3.61937 0 0 24 1.59028e-15 -7.95139e-16 -2.0521 -5.68434e-14 0 20 -1.59028e-15 -0 -3.38211 0.517263 0.756737 5.28022e-16 4.77083e-15 -9.93923e-17 -5.17411 -0.084 0.313895 20 1.59028e-15 -0 -3.94947 0 2.84217e-14 24 3.18055e-15 -1.59028e-15 -2.47579 -5.68434e-14 0 20 -7.95139e-16 1.59028e-15 -3.36516 0.537895 -0.128947 5.28022e-16 4.77083e-15 -9.93923e-17 -4.63474 -0.022105 -0.478947 19.9748 -1.02565 -2.81938 -3.44238 0 -2.84217e-14 24 -2.38542e-15 -0 -2.3881 5.68434e-14 0 20 1.59028e-15 -1.59028e-15 -3.16105 0.469368 -1.20179 5.28022e-16 4.77083e-15 -9.93923e-17 -4.14105 -0.022105 -1.09053 19.7815 -3.00948 -8.30515 -2.75653 0 0 24 -9.93923e-16 1.59028e-15 -1.74189 -5.68434e-14 0 20 0 1.59028e-15 3.18302 6.94312 -0.0564386 4.05621 -15.1483 -54.7576 12.8039 0.00361391 -0.0429074 -7.33192 23.9405 -116.617 26.413 -0.02687 0.131275 29.5987 -18.4855 -38.4905 25.9919 0.00159878 0.0513717 -36.8701 -9.35226 -15.0803 2.48905 0.190105 3.12053 -28.184 10.7294 -19.1592 3.68274 0 5.68434e-14 -5.40525e-15 3.18055e-15 10 2.55832 0 -2.84217e-14 -7.82746e-15 3.18055e-15 10 3.22368 0.508421 1.97842 5.94801e-16 -3.72721e-17 -3.18055e-15 5.21684 -0.091368 0.999158 -19.9818 0.871897 -2.3964 3.61937 0 2.84217e-14 -24 1.59028e-15 -1.27222e-14 2.0521 0 1.42109e-14 -20 6.36111e-15 -6.36111e-15 3.38211 0.517263 0.756737 5.94801e-16 -3.72721e-17 -3.18055e-15 5.17411 -0.084 0.313895 -20 2.38542e-15 -4.77083e-15 3.94947 5.68434e-14 -1.42109e-14 -24 3.18055e-15 -3.18055e-15 2.47579 0 -1.42109e-14 -20 3.18055e-15 -3.97569e-15 3.36516 0.537895 -0.128947 5.94801e-16 -3.72721e-17 -3.18055e-15 4.63474 -0.022105 -0.478947 -19.9748 -1.02565 2.81938 3.44238 0 0 -24 3.18055e-15 -4.77083e-15 2.3881 0 0 -20 3.18055e-15 -5.56597e-15 3.16105 0.469368 -1.20179 5.94801e-16 -3.72721e-17 -3.18055e-15 4.14105 -0.022105 -1.09053 -19.7815 -3.00948 8.30515 2.75653 2.84217e-14 0 -24 1.59028e-15 -7.95139e-16 1.74189 5.68434e-14 2.84217e-14 -20 0 3.97569e-16 
341.971 86.475 218.543 22.9071 5.40635 -137.629 -9.32217 -1.65918 -0.0617304 33.1698 -35.9922 28.3851 -0.0847242 -41.8694 -0.012418 -4.14724 6.601 6.46773 -0.168354 -44.7116 1.46138 10.3149 18.4883 44.3047 9.27677 -1.53685 0.0553863 37.3456 -9.7673 25.0307 0.0234696 -41.9035 0.0257212 -22.9979 43.1668 25.3213 2.56609 -41.9428 -2.98463 1.92948 -26.5765 11.7175 -0.0431908 14.3084 0.0895684 -4.30678 -6.33143 -9.99946 -0.0219724 9.71696 0.0137889 -0.970795 -1.69157 -2.40075 -0.0621665 10.1217 -0.0620552 -1.64165 -2.81494 -3.91783 -0.0424008 9.71864 -0.0277047 -0.355083 0.107919 2.74088 -0.116916 10.3811 0.127808 -0.863501 -0.0577257 34.2053 -0.163932 9.46379 0.0046355 -6.96226 9.46451 30.2347 -3.23918 6.89455 0.0329929 5.34945 8.15873 -8.90673 -12.8108 0.00188135 0.0602569 38.1324 -64.8907 -0.087005 -26.446 -0.0207979 -0.0062392 20.763 -3.17541 127.879 -26.0043 -0.0278325 0.0665281 8.96602 -28.8493 3.95558 -2.48905 0.190105 3.12053 28.184 10.7294 19.1592 -3.68274 -5.68434e-14 -2.84217e-14 9.08331e-15 0 -10 -2.55832 0 0 1.61481e-15 0 -10 -3.22368 0.508421 1.97842 6.36732e-15 1.59028e-15 1.06847e-15 -5.21684 -0.091368 0.999158 19.9818 0.871897 2.3964 -3.61937 5.68434e-14 2.84217e-14 24 0 -0 -2.0521 0 0 20 1.59028e-15 -3.18055e-15 -3.38211 0.517263 0.756737 6.36732e-15 1.59028e-15 1.06847e-15 -5.17411 -0.084 0.313895 20 -3.18055e-15 2.38542e-15 -3.94947 0 0 24 0 -3.18055e-15 -2.47579 0 2.84217e-14 20 0 4.77083e-15 -3.36516 0.537895 -0.128947 6.36732e-15 1.59028e-15 1.06847e-15 -4.63474 -0.022105 -0.478947 19.9748 -1.02565 -2.81938 -3.44238 0 2.84217e-14 24 0 -0 -2.3881 -5.68434e-14 -5.68434e-14 20 0 -1.59028e-15 -3.16105 0.469368 -1.20179 6.36732e-15 1.59028e-15 1.06847e-15 -4.14105 -0.022105 -1.09053 19.7815 -3.00948 -8.30515 -2.75653 0 -2.84217e-14 24 -5.96354e-16 -1.59028e-15 -1.74189 0 -5.68434e-14 20 7.95139e-16 1.59028e-15 3.17652 6.93915 -0.0474335 4.12487 -15.1742 -54.7714 12.8053 9.73868e-05 -0.0345181 -7.41363 24.0185 -116.614 26.4194 -0.0309246 0.127465 29.6909 -18.4431 -38.4703 25.9918 -0.00187726 0.0461566 -36.8458 -9.30112 -15.2093 2.48905 0.190105 3.12053 -28.184 10.7294 -19.1592 3.68274 0 -2.84217e-14 -7.73584e-16 -4.77083e-15 10 2.55832 -5.68434e-14 0 -9.12804e-15 -3.18055e-15 10 3.22368 0.508421 1.97842 7.26806e-16 -5.96354e-16 -3.18055e-15 5.21684 -0.091368 0.999158 -19.9818 0.871897 -2.3964 3.61937 0 2.84217e-14 -24 1.59028e-15 -4.77083e-15 2.0521 0 1.42109e-14 -20 0 -0 3.38211 0.517263 0.756737 7.26806e-16 -5.96354e-16 -3.18055e-15 5.17411 -0.084 0.313895 -20 0 -0 3.94947 5.68434e-14 -2.84217e-14 -24 0 -0 2.47579 -5.68434e-14 0 -20 -3.18055e-15 -7.95139e-16 3.36516 0.537895 -0.128947 7.26806e-16 -5.96354e-16 -3.18055e-15 4.63474 -0.022105 -0.478947 -19.9748 -1.02565 2.81938 3.44238 0 0 -24 1.59028e-15 1.59028e-15 2.3881 5.68434e-14 0 -20 -1.59028e-15 -7.95139e-16 3.16105 0.469368 -1.20179 7.26806e-16 -5.96354e-16 -3.18055e-15 4.14105 -0.022105 -1.09053 -19.7815 -3.00948 8.30515 2.75653 -2.84217e-14 2.84217e-14 -24 -7.95139e-16 -0 1.74189 0 0 -20 -1.59028e-15 1.19271e-15 
342.037 86.4642 218.574 22.9726 5.46333 -137.645 -9.32262 -1.65539 -0.058405 33.2939 -36.0449 28.5004 -0.0814025 -41.8688 -0.0120715 -4.18803 6.67025 6.45163 -0.128584 -44.7448 1.4748 10.3873 18.4659 44.2448 9.27706 -1.54043 0.0545945 37.4335 -9.83856 25.1305 0.0244213 -41.9068 0.0258672 -22.9276 43.2783 25.24 2.57467 -41.8917 -2.95984 1.99896 -26.5796 11.7464 -0.0377429 14.3085 0.0882726 -4.30041 -6.33329 -9.98929 -0.0231335 9.71704 0.0140667 -0.970454 -1.69225 -2.39499 -0.0601362 10.1217 -0.0597622 -1.63912 -2.81493 -3.91415 -0.041721 9.71873 -0.0271584 -0.351665 0.110637 2.73906 -0.116667 10.3814 0.11945 -0.860815 -0.0189356 34.1146 -0.155792 9.4636 0.00619542 -6.91616 9.42712 30.2797 -3.23878 6.89346 0.0306445 5.39792 8.12515 -8.96153 -12.8067 -0.00350678 0.0603036 38.4641 -64.6637 0.222959 -26.4475 -0.0224714 -0.00687391 20.2699 -3.45928 127.883 -26.0042 -0.0637004 0.0791972 8.86825 -29.2176 4.02519 -2.48905 0.190105 3.12053 28.184 10.7294 19.1592 -3.68274 0 2.84217e-14 2.15272e-15 -9.54166e-15 -10 -2.55832 0 0 -2.17563e-15 -3.18055e-15 -10 -3.22368 0.508421 1.97842 -9.34288e-15 1.59028e-15 -6.4605e-16 -5.21684 -0.091368 0.999158 19.9818 0.871897 2.3964 -3.61937 5.68434e-14 0 24 0 7.95139e-16 -2.0521 -5.68434e-14 0 20 1.59028e-15 -0 -3.38211 0.517263 0.756737 -9.34288e-15 1.59028e-15 -6.4605e-16 -5.17411 -0.084 0.313895 20 0 7.95139e-16 -3.94947 -5.68434e-14 -2.84217e-14 24 0 3.18055e-15 -2.47579 0 0 20 0 -3.18055e-15 -3.36516 0.537895 -0.128947 -9.34288e-15 1.59028e-15 -6.4605e-16 -4.63474 -0.022105 -0.478947 19.9748 -1.02565 -2.81938 -3.44238 5.68434e-14 0 24 0 3.18055e-15 -2.3881 0 0 20 1.59028e-15 3.18055e-15 -3.16105 0.469368 -1.20179 -9.34288e-15 1.59028e-15 -6.4605e-16 -4.14105 -0.022105 -1.09053 19.7815 -3.00948 -8.30515 -2.75653 0 0 24 5.96354e-16 -1.59028e-15 -1.74189 0 2.84217e-14 20 7.95139e-16 1.59028e-15 3.1686 6.93273 -0.0411051 4.20659 -15.2572 -54.7145 12.8064 -0.00476628 -0.0242336 -7.54432 24.1175 -116.61 26.4237 -0.0347819 0.127403 29.7537 -18.3514 -38.4613 25.9917 -0.00550535 0.0412804 -36.8725 -9.26154 -15.349 2.48905 0.190105 3.12053 -28.184 10.7294 -19.1592 3.68274 -5.68434e-14 2.84217e-14 -5.40525e-15 3.18055e-15 10 2.55832 0 -2.84217e-14 5.15866e-15 -6.36111e-15 10 3.22368 0.508421 1.97842 -1.01877e-15 4.72114e-16 -0 5.21684 -0.091368 0.999158 -19.9818 0.871897 -2.3964 3.61937 0 1.42109e-14 -24 0 -7.95139e-15 2.0521 0 -1.42109e-14 -20 -3.18055e-15 7.95139e-16 3.38211 0.517263 0.756737 -1.01877e-15 4.72114e-16 -0 5.17411 -0.084 0.313895 -20 0 -0 3.94947 -5.68434e-14 1.42109e-14 -24 1.59028e-15 -1.59028e-15 2.47579 0 0 -20 -1.59028e-15 -0 3.36516 0.537895 -0.128947 -1.01877e-15 4.72114e-16 -0 4.63474 -0.022105 -0.478947 -19.9748 -1.02565 2.81938 3.44238 5.68434e-14 -2.84217e-14 -24 1.59028e-15 -0 2.3881 0 0 -20 1.59028e-15 -0 3.16105 0.469368 -1.20179 -1.01877e-15 4.72114e-16 -0 4.14105 -0.022105 -1.09053 -19.7815 -3.00948 8.30515 2.75653 0 -2.84217e-14 -24 7.95139e-16 7.95139e-16 1.74189 0 2.84217e-14 -20 7.95139e-16 1.19271e-15 
